<svg width="307" height="321" viewBox="0 0 307 321" fill="none" xmlns="http://www.w3.org/2000/svg">
<path d="M30 1H87.4727C97.1539 1.00012 106.196 5.83144 111.578 13.8789L117.539 22.792C125.148 34.1696 137.933 40.9999 151.62 41H277C293.016 41 306 53.9837 306 70V257C306 273.016 293.016 286 277 286H30C13.9837 286 1 273.016 1 257V30C1 13.9837 13.9837 1 30 1Z" fill="#007DEB" stroke="url(#paint0_linear_22_133)" stroke-width="2"/>
<g filter="url(#filter0_d_22_133)">
<rect x="37" y="63" width="241" height="210" rx="12" fill="#FEBC59"/>
</g>
<g filter="url(#filter1_d_22_133)">
<rect x="37" y="83" width="241" height="190" rx="12" fill="white"/>
</g>
<foreignObject x="-14" y="88" width="335" height="213"><div xmlns="http://www.w3.org/1999/xhtml" style="backdrop-filter:blur(7px);clip-path:url(#bgblur_0_22_133_clip_path);height:100%;width:100%"></div></foreignObject><rect data-figma-bg-blur-radius="14" x="1" y="103" width="305" height="183" rx="29" fill="url(#paint1_linear_22_133)" fill-opacity="0.8" stroke="url(#paint2_linear_22_133)" stroke-width="2"/>
<defs>
<filter id="filter0_d_22_133" x="13" y="63" width="289" height="258" filterUnits="userSpaceOnUse" color-interpolation-filters="sRGB">
<feFlood flood-opacity="0" result="BackgroundImageFix"/>
<feColorMatrix in="SourceAlpha" type="matrix" values="0 0 0 0 0 0 0 0 0 0 0 0 0 0 0 0 0 0 127 0" result="hardAlpha"/>
<feOffset dy="24"/>
<feGaussianBlur stdDeviation="12"/>
<feComposite in2="hardAlpha" operator="out"/>
<feColorMatrix type="matrix" values="0 0 0 0 0 0 0 0 0 0 0 0 0 0 0 0 0 0 0.25 0"/>
<feBlend mode="normal" in2="BackgroundImageFix" result="effect1_dropShadow_22_133"/>
<feBlend mode="normal" in="SourceGraphic" in2="effect1_dropShadow_22_133" result="shape"/>
</filter>
<filter id="filter1_d_22_133" x="13" y="83" width="289" height="238" filterUnits="userSpaceOnUse" color-interpolation-filters="sRGB">
<feFlood flood-opacity="0" result="BackgroundImageFix"/>
<feColorMatrix in="SourceAlpha" type="matrix" values="0 0 0 0 0 0 0 0 0 0 0 0 0 0 0 0 0 0 127 0" result="hardAlpha"/>
<feOffset dy="24"/>
<feGaussianBlur stdDeviation="12"/>
<feComposite in2="hardAlpha" operator="out"/>
<feColorMatrix type="matrix" values="0 0 0 0 0 0 0 0 0 0 0 0 0 0 0 0 0 0 0.25 0"/>
<feBlend mode="normal" in2="BackgroundImageFix" result="effect1_dropShadow_22_133"/>
<feBlend mode="normal" in="SourceGraphic" in2="effect1_dropShadow_22_133" result="shape"/>
</filter>
<clipPath id="bgblur_0_22_133_clip_path" transform="translate(14 -88)"><rect x="1" y="103" width="305" height="183" rx="29"/>
</clipPath><linearGradient id="paint0_linear_22_133" x1="12.5" y1="7.00001" x2="287.5" y2="279.5" gradientUnits="userSpaceOnUse">
<stop stop-color="#5FB4FF"/>
<stop offset="1" stop-color="#006ECF"/>
</linearGradient>
<linearGradient id="paint1_linear_22_133" x1="153.5" y1="102" x2="153.5" y2="287" gradientUnits="userSpaceOnUse">
<stop stop-color="#4CABFF"/>
<stop offset="1" stop-color="#004785"/>
</linearGradient>
<linearGradient id="paint2_linear_22_133" x1="7" y1="138.529" x2="316.582" y2="221.004" gradientUnits="userSpaceOnUse">
<stop stop-color="#5FB4FF"/>
<stop offset="1" stop-color="#006ECF"/>
</linearGradient>
</defs>
</svg>
